#!OML:ASF H:\BreakDance\Project 1\Capture day 1\Session 1\Male.ASF
:FULLY-SPECIFIED
:DEGREES
780
root -2.01847 14.5443 -16.1619 -496.475 -167.096 522.341
lowerback 6.82334 2.649 -8.48467
upperback 4.60924 2.95458 -6.70122
thorax 0.916757 1.34487 -2.40289
lowerneck -9.07911 -5.12243 0.225254
upperneck 1.31826 -7.96546 19.6408
head 2.77074 -3.46834 5.50598
rclavicle -3.49861e-014 1.90833e-014
rhumerus -37.7585 -20.6355 -57.6796
rradius 30.9561
rwrist -12.824
rhand -23.0956 322.453
rfingers 7.12502
rthumb 3.35076 -427.501
lclavicle -3.49861e-014 1.90833e-014
lhumerus 33.1463 -1.32689 41.5682
lradius 22.4937
lwrist -6.39285
lhand -35.2339 334.482
lfingers 7.12502
lthumb -8.37049 4.29649
rfemur -36.5346 -32.2212 30.4211
rtibia 37.6502
rfoot -27.4343 -11.9364
rtoes -33.9634
lfemur -56.2332 9.15963 22.1216
ltibia 60.3299
lfoot -42.0999 12.6694
ltoes -42.5379
781
root -1.99004 14.548 -16.1408 -496.099 -168.078 523.757
lowerback 6.72676 2.30833 -9.3811
upperback 4.59365 2.48185 -6.47478
thorax 0.924208 1.09176 -1.64009
lowerneck -8.8764 -5.43386 -0.732946
upperneck 0.395881 -8.13508 19.8883
head 2.5332 -3.63029 5.73976
rclavicle 5.725e-014 5.40694e-014
rhumerus -38.1192 -20.3836 -57.4168
rradius 31.3506
rwrist -13.6592
rhand -22.9996 322.613
rfingers 7.12502
rthumb 3.44347 -427.339
lclavicle 5.725e-014 5.40694e-014
lhumerus 32.232 -1.30659 42.1411
lradius 22.6178
lwrist -5.79091
lhand -35.1913 334.374
lfingers 7.12502
lthumb -8.32935 4.18952
rfemur -37.0967 -31.8225 29.5579
rtibia 37.6908
rfoot -27.1994 -13.6512
rtoes -34.7316
lfemur -57.8246 9.91756 20.5985
ltibia 59.9443
lfoot -41.283 12.3309
ltoes -43.4815
782
root -1.96841 14.5573 -16.1118 -495.805 -169.083 525.057
lowerback 6.66042 2.01551 -10.1667
upperback 4.66404 2.08418 -6.17772
thorax 1.02139 0.872688 -0.87178
lowerneck -8.56577 -5.75069 -1.83467
upperneck -0.676254 -8.27771 20.1712
head 2.24334 -3.79006 6.01725
rclavicle 4.77083e-014 -6.36111e-015
rhumerus -38.4623 -20.0592 -57.187
rradius 31.6798
rwrist -14.3877
rhand -22.886 322.864
rfingers 7.12502
rthumb 3.55316 -427.086
lclavicle 4.77083e-014 -6.36111e-015
lhumerus 31.4188 -1.22606 42.9006
lradius 22.7261
lwrist -5.34834
lhand -35.1729 334.064
lfingers 7.12502
lthumb -8.31169 3.88051
rfemur -37.2124 -31.2301 28.5834
rtibia 37.4924
rfoot -27.0584 -15.4397
rtoes -35.4564
lfemur -59.4266 10.8078 18.9799
ltibia 59.5534
lfoot -40.3365 11.6512
ltoes -44.4488
783
root -1.95068 14.5705 -16.0744 -495.624 -170.11 526.19
lowerback 6.64128 1.80881 -10.7098
upperback 4.81562 1.81351 -5.87103
thorax 1.18898 0.715722 -0.236687
lowerneck -8.17605 -6.09237 -2.90402
upperneck -1.83932 -8.45191 20.4322
head 1.92002 -3.97065 6.28745
rclavicle 1.59028e-014 3.81667e-014
rhumerus -38.8379 -19.7734 -57.0151
rradius 31.8873
rwrist -14.934
rhand -22.7458 323.135
rfingers 7.12502
rthumb 3.68862 -426.813
lclavicle 1.59028e-014 3.81667e-014
lhumerus 30.7791 -1.25589 43.7236
lradius 22.8172
lwrist -5.02139
lhand -35.2443 333.598
lfingers 7.12502
lthumb -8.38056 3.41152
rfemur -36.8532 -30.5215 27.5849
rtibia 37.0541
rfoot -26.9423 -17.2253
rtoes -36.1199
lfemur -60.96 11.7532 17.3458
ltibia 59.2395
lfoot -39.3669 10.7379
ltoes -45.3883
784
root -1.93455 14.5939 -16.0263 -495.567 -171.167 527.143
lowerback 6.68707 1.68556 -10.943
upperback 5.02909 1.66306 -5.58257
thorax 1.38922 0.620892 0.201094
lowerneck -7.75005 -6.45351 -3.81975
upperneck -2.99369 -8.67894 20.6058
head 1.59282 -4.17481 6.50658
rclavicle -1.11319e-013 -9.54166e-015
rhumerus -39.2304 -19.5534 -56.93
rradius 31.9218
rwrist -15.2528
rhand -22.5933 323.349
rfingers 7.12502
rthumb 3.83588 -426.596
lclavicle -1.11319e-013 -9.54166e-015
lhumerus 30.2834 -1.50232 44.5005
lradius 22.904
lwrist -4.7539
lhand -35.4185 333.035
lfingers 7.12502
lthumb -8.54861 2.8422
rfemur -36.0923 -29.7548 26.6349
rtibia 36.4333
rfoot -26.8203 -18.7917
rtoes -36.2992
lfemur -62.3126 12.5674 15.835
ltibia 58.9943
lfoot -38.5515 9.60305
ltoes -46.0462
785
root -1.91609 14.6199 -15.9707 -495.63 -172.244 527.937
lowerback 6.81863 1.66224 -10.8029
upperback 5.27275 1.6496 -5.3837
thorax 1.57137 0.60323 0.331854
lowerneck -7.29281 -6.85083 -4.40409
upperneck -4.09061 -9.00199 20.6568
head 1.27011 -4.42421 6.63005
rclavicle 6.36111e-015 2.38542e-014
rhumerus -39.7289 -19.5112 -56.9554
rradius 31.7879
rwrist -15.3391
rhand -22.4408 323.429
rfingers 7.12502
rthumb 3.98308 -426.513
lclavicle 6.36111e-015 2.38542e-014
lhumerus 29.9485 -2.19614 45.0663
lradius 23.0456
lwrist -4.38864
lhand -35.6814 332.459
lfingers 7.12502
lthumb -8.80232 2.25557
rfemur -35.0426 -29.0429 25.8007
rtibia 35.7043
rfoot -26.573 -20.1943
rtoes -36.2768
lfemur -63.4574 13.1764 14.5066
ltibia 58.8433
lfoot -37.9571 8.34533
ltoes -46.3336
786
root -1.89315 14.643 -15.91 -495.786 -173.303 528.6
lowerback 7.02783 1.65799 -10.4369
upperback 5.50778 1.65856 -5.1868
thorax 1.70176 0.605132 0.334194
lowerneck -6.8498 -7.21371 -4.8338
upperneck -5.02482 -9.32288 20.563
head 0.982303 -4.65964 6.68364
rclavicle 1.59028e-014 4.45278e-014
rhumerus -40.1323 -19.3403 -57.1044
rradius 31.4956
rwrist -15.2999
rhand -22.2967 323.355
rfingers 7.12502
rthumb 4.12229 -426.585
lclavicle 1.59028e-014 4.45278e-014
lhumerus 29.5087 -3.10687 45.5415
lradius 23.2584
lwrist -3.94342
lhand -35.9895 331.896
lfingers 7.12502
lthumb -9.09968 1.6796
rfemur -33.8579 -28.4218 25.0875
rtibia 34.9826
rfoot -26.1811 -21.4281
rtoes -36.0188
lfemur -64.3548 13.5639 13.3643
ltibia 58.732
lfoot -37.5453 7.206
ltoes -46.4317
787
root -1.86502 14.6627 -15.8459 -495.986 -174.293 529.161
lowerback 7.29738 1.79782 -9.69335
upperback 5.70662 1.8628 -5.20666
thorax 1.75816 0.722426 -0.110197
lowerneck -6.36103 -7.64817 -4.69436
upperneck -5.88967 -9.79539 20.3605
head 0.689341 -4.97687 6.60413
rclavicle -3.18055e-014 3.81667e-014
rhumerus -40.8824 -19.6195 -57.3608
rradius 31.183
rwrist -15.1131
rhand -22.1211 323.159
rfingers 7.12502
rthumb 4.29183 -426.777
lclavicle -3.18055e-014 3.81667e-014
lhumerus 29.3096 -4.7529 45.6433
lradius 23.6435
lwrist -3.16503
lhand -36.2409 331.419
lfingers 7.12502
lthumb -9.34223 1.19199
rfemur -32.701 -27.8946 24.4747
rtibia 34.3672
rfoot -25.7316 -22.4642
rtoes -35.3993
lfemur -65.0046 13.7326 12.3959
ltibia 58.6106
lfoot -37.2855 6.35012
ltoes -46.4794
788
root -1.8317 14.6817 -15.7789 -496.189 -175.157 529.661
lowerback 7.59029 1.93235 -8.87723
upperback 5.84166 2.05759 -5.24335
thorax 1.74286 0.842596 -0.614468
lowerneck -5.9083 -8.04031 -4.45483
upperneck -6.54439 -10.2479 20.0525
head 0.445518 -5.26945 6.47635
rclavicle 1.90833e-014 4.6118e-014
rhumerus -41.5685 -19.803 -57.6915
rradius 30.855
rwrist -14.9059
rhand -21.8443 322.883
rfingers 7.12502
rthumb 4.5591 -427.048
lclavicle 1.90833e-014 4.6118e-014
lhumerus 28.9256 -6.44072 45.7972
lradius 24.1292
lwrist -2.32033
lhand -36.3704 330.968
lfingers 7.12502
lthumb -9.46725 0.735466
rfemur -31.7023 -27.406 23.8964
rtibia 33.9517
rfoot -25.3254 -23.3441
rtoes -34.3819
lfemur -65.4308 13.6982 11.5636
ltibia 58.4432
lfoot -37.156 5.75446
ltoes -46.4799
